<?xml version="1.0" standalone="no"?>
<!DOCTYPE svg PUBLIC "-//W3C//DTD SVG 20010904//EN"
 "http://www.w3.org/TR/2001/REC-SVG-20010904/DTD/svg10.dtd">
<svg version="1.0" xmlns="http://www.w3.org/2000/svg"
 width="16.000000pt" height="16.000000pt" viewBox="0 0 16.000000 16.000000"
 preserveAspectRatio="xMidYMid meet">
<metadata>
Created by potrace 1.11, written by Peter Selinger 2001-2013
</metadata>
<g transform="translate(0.000000,16.000000) scale(0.001022,-0.001022)"
fill="#000000" stroke="none">
<path d="M8 12928 c-3 -7 -4 -1160 -2 -2563 l2 -2550 40 -85 c21 -47 50 -107
62 -135 13 -27 42 -92 66 -143 24 -52 44 -95 44 -97 0 -2 25 -55 55 -120 30
-64 55 -118 55 -120 0 -1 21 -47 48 -101 l47 -99 3 2716 2 2716 273 -79 c276
-80 398 -112 452 -122 17 -3 41 -7 55 -10 26 -6 179 -35 218 -42 12 -2 50 -9
85 -15 34 -6 78 -13 97 -15 35 -4 73 -10 120 -18 14 -3 52 -7 85 -11 33 -3 67
-8 75 -10 8 -2 45 -6 82 -10 37 -3 77 -8 90 -10 13 -2 57 -6 98 -10 41 -3 98
-8 125 -10 94 -9 170 -15 265 -21 52 -3 120 -7 150 -9 376 -26 1478 -26 1895
0 215 13 325 21 428 29 43 4 108 9 145 11 37 3 99 7 137 10 39 3 97 8 130 10
33 2 89 7 125 10 36 2 99 7 140 10 84 6 148 13 200 20 104 14 255 27 249 20
-8 -7 -438 -168 -564 -210 -282 -95 -711 -203 -1030 -260 -205 -36 -259 -45
-310 -51 -33 -3 -63 -8 -66 -10 -3 -1 -31 -6 -63 -9 -31 -4 -66 -8 -76 -10
-10 -2 -47 -6 -82 -10 -35 -3 -74 -8 -88 -10 -14 -2 -59 -7 -100 -10 -41 -4
-82 -8 -90 -10 -8 -1 -64 -6 -125 -10 -60 -3 -128 -8 -150 -10 -261 -23 -1095
-23 -1335 0 -19 2 -78 6 -130 10 -52 3 -113 7 -135 9 -22 2 -71 7 -110 10 -73
7 -136 14 -195 21 -19 3 -59 7 -89 11 -30 3 -64 8 -75 10 -12 2 -41 7 -66 9
-25 3 -52 8 -60 10 -30 9 -170 15 -171 7 0 -4 -2 -1379 -3 -3057 -2 -2872 -1
-3053 16 -3105 9 -31 30 -87 46 -125 49 -116 212 -499 222 -520 5 -11 34 -78
65 -150 31 -71 60 -134 65 -139 7 -7 10 1198 10 3317 l0 3328 78 -6 c42 -3 88
-8 102 -10 14 -2 61 -7 105 -11 44 -4 94 -8 110 -10 17 -1 68 -5 115 -9 47 -4
98 -9 115 -11 37 -4 183 -14 295 -19 205 -10 726 -5 957 10 132 8 331 23 383
30 19 2 60 7 90 10 54 6 79 9 170 20 25 3 65 8 90 11 50 6 44 5 225 34 190 30
188 30 215 35 14 3 39 7 55 10 17 3 39 7 50 9 11 3 79 16 150 31 72 14 168 35
215 46 205 48 337 81 365 90 17 5 116 34 220 64 290 82 568 177 852 290 89 36
166 65 172 65 6 0 11 3 11 8 0 4 24 16 53 26 28 10 126 54 217 99 91 44 182
88 203 98 l38 18 -16 -22 c-66 -95 -307 -328 -473 -456 -592 -459 -1393 -805
-2332 -1007 -122 -26 -365 -73 -415 -79 -16 -3 -46 -7 -65 -10 -19 -3 -53 -8
-75 -10 -22 -3 -51 -8 -65 -10 -14 -3 -45 -7 -70 -10 -25 -3 -56 -8 -70 -10
-14 -2 -54 -6 -90 -10 -36 -4 -76 -8 -90 -10 -14 -2 -61 -7 -105 -10 -44 -3
-96 -8 -115 -10 -19 -2 -84 -7 -145 -10 -60 -4 -130 -8 -155 -10 -89 -7 -408
-17 -570 -19 l-165 -2 0 -3815 0 -3814 200 1 c182 1 551 11 650 18 22 2 93 6
159 10 65 4 126 9 135 11 9 2 60 6 113 10 54 3 105 8 115 9 10 2 43 7 73 10
30 4 69 8 85 10 17 3 55 7 85 10 399 43 1139 215 1485 346 28 10 93 35 145 54
93 34 195 75 255 101 328 144 517 225 525 225 7 0 10 476 10 1473 1 809 3
1495 5 1522 38 444 247 835 600 1125 201 165 472 294 721 344 138 27 224 36
364 39 318 5 674 -100 954 -283 82 -54 90 -59 195 -151 238 -207 426 -513 500
-814 19 -80 24 -110 38 -215 4 -30 7 -723 7 -1539 l1 -1483 70 -37 c66 -34 95
-48 220 -102 28 -12 68 -29 90 -39 105 -46 502 -202 595 -233 179 -61 487
-151 588 -172 9 -2 57 -13 106 -25 50 -11 106 -23 125 -26 20 -3 39 -8 42 -10
3 -2 21 -6 40 -9 19 -3 68 -12 109 -20 91 -18 300 -53 355 -60 53 -6 125 -17
150 -21 11 -2 47 -6 80 -9 33 -3 76 -8 95 -10 19 -3 60 -7 90 -10 30 -2 81 -7
113 -10 145 -13 197 -17 437 -30 36 -2 217 -7 403 -10 l337 -7 0 178 c0 995
-1 4694 -1 5905 -1 845 -4 1541 -8 1546 -3 6 -104 10 -251 10 -215 -1 -461 7
-585 18 -22 2 -76 6 -120 10 -44 3 -96 8 -115 10 -19 2 -66 7 -105 11 -38 3
-81 8 -95 10 -14 2 -50 6 -80 9 -30 4 -65 8 -76 10 -12 2 -48 7 -80 10 -33 4
-66 9 -76 11 -9 1 -38 6 -65 9 -51 7 -171 27 -263 44 -30 6 -66 12 -80 15
-353 60 -1089 268 -1337 376 -13 6 -33 14 -45 19 -202 84 -445 199 -573 271
-227 127 -497 307 -615 409 -14 12 -52 45 -85 74 -182 158 -367 348 -353 363
3 2 81 -34 174 -80 251 -124 427 -198 714 -301 41 -15 84 -31 95 -36 56 -26
634 -207 745 -234 8 -2 107 -26 220 -54 179 -44 444 -102 535 -116 17 -3 41
-8 55 -10 14 -3 36 -7 50 -10 14 -3 36 -7 50 -10 33 -6 63 -11 190 -30 58 -9
116 -18 130 -20 41 -7 260 -33 330 -40 36 -4 76 -8 90 -10 14 -2 63 -7 110
-10 47 -4 101 -8 120 -10 42 -4 256 -16 360 -21 111 -4 628 -4 760 1 151 6
342 18 470 30 25 2 74 7 110 10 36 4 71 8 79 11 18 6 145 18 201 18 l44 1 0
-3323 c1 -3163 1 -3321 18 -3300 10 13 18 26 18 30 0 3 18 44 39 90 86 184
321 743 342 813 5 17 9 116 9 220 -1 105 -1 1480 -2 3057 0 2681 -1 2868 -17
2873 -23 7 -112 -1 -346 -31 -22 -3 -80 -11 -130 -19 -49 -7 -121 -17 -160
-20 -38 -3 -88 -8 -110 -10 -22 -2 -85 -7 -140 -11 -55 -3 -116 -7 -135 -9
-231 -22 -1073 -22 -1300 0 -19 2 -87 7 -150 10 -63 4 -122 9 -131 10 -9 2
-52 6 -95 10 -43 3 -90 8 -104 10 -14 2 -54 7 -90 10 -36 3 -76 8 -90 10 -14
2 -45 7 -70 10 -136 16 -406 60 -565 91 -71 14 -141 28 -155 30 -307 59 -825
214 -1144 343 -195 79 -198 82 -61 67 80 -8 168 -17 221 -21 52 -5 111 -10
264 -25 52 -5 131 -12 175 -15 44 -3 100 -8 125 -10 25 -3 90 -7 145 -10 55
-4 125 -8 155 -10 30 -3 105 -7 165 -10 61 -3 146 -8 190 -10 472 -27 1463
-27 1870 0 28 2 97 6 155 9 58 4 128 9 155 11 28 2 86 7 130 10 44 3 94 7 110
10 17 2 59 7 95 10 36 3 76 7 90 9 14 3 52 7 85 11 64 7 317 42 350 49 11 2
40 7 65 10 37 6 139 25 339 62 14 3 28 7 31 9 4 2 22 7 41 10 65 11 304 76
440 120 75 24 152 47 172 50 l34 7 0 -2702 c1 -1485 3 -2704 7 -2707 5 -5 81
146 84 167 1 3 20 43 43 90 23 47 67 144 99 215 32 72 72 162 90 200 18 39 43
93 55 120 49 107 47 -8 46 2605 0 1356 0 2498 -1 2538 0 83 2 82 -85 42 -271
-122 -919 -307 -1355 -386 -14 -2 -47 -9 -75 -14 -80 -16 -97 -19 -135 -25
-20 -3 -47 -7 -60 -10 -13 -3 -42 -7 -65 -10 -22 -3 -47 -8 -55 -10 -8 -2 -40
-7 -70 -10 -30 -3 -62 -8 -70 -10 -8 -2 -40 -6 -71 -10 -31 -3 -67 -8 -79 -10
-12 -2 -49 -7 -83 -10 -34 -3 -73 -8 -87 -10 -14 -3 -54 -7 -90 -10 -66 -6
-138 -12 -220 -20 -25 -3 -85 -7 -135 -10 -49 -3 -115 -7 -145 -10 -57 -5
-280 -15 -460 -21 -138 -4 -832 -4 -937 0 -187 8 -416 22 -518 30 -33 3 -94 8
-135 11 -41 3 -91 8 -110 10 -19 2 -64 7 -100 10 -104 9 -162 15 -200 20 -19
3 -58 7 -86 10 -61 6 -150 16 -264 31 -30 4 -64 8 -75 9 -48 7 -192 26 -215
30 -36 6 -76 12 -155 24 -75 11 -300 48 -350 56 -16 3 -57 10 -90 16 -33 6
-91 17 -130 24 -38 8 -81 16 -95 19 -14 2 -65 11 -115 21 -49 9 -101 19 -115
22 -14 2 -45 9 -70 14 -25 6 -56 13 -70 15 -14 3 -41 9 -60 14 -19 5 -48 11
-65 14 -16 3 -122 28 -234 56 -267 66 -289 68 -425 36 -59 -14 -120 -28 -135
-31 -14 -3 -42 -9 -61 -15 -36 -11 -225 -55 -270 -64 -14 -2 -68 -14 -120 -25
-110 -24 -544 -106 -610 -116 -25 -3 -63 -10 -85 -15 -22 -5 -62 -11 -90 -15
-27 -3 -57 -8 -65 -10 -8 -2 -37 -7 -65 -10 -27 -3 -57 -7 -65 -9 -8 -3 -35
-7 -60 -10 -25 -3 -54 -8 -65 -10 -11 -2 -45 -7 -76 -10 -31 -4 -65 -8 -75
-10 -11 -2 -44 -7 -74 -11 -30 -3 -66 -8 -80 -10 -14 -2 -54 -7 -90 -10 -36
-4 -74 -9 -85 -11 -11 -2 -47 -6 -80 -9 -33 -3 -76 -7 -95 -10 -44 -5 -224
-23 -315 -30 -38 -4 -90 -8 -115 -11 -25 -2 -83 -6 -130 -9 -47 -3 -114 -7
-150 -10 -84 -5 -263 -14 -415 -21 -150 -6 -856 -6 -990 0 -303 15 -447 23
-540 31 -49 5 -105 10 -222 20 -32 3 -74 7 -93 10 -19 2 -64 7 -100 11 -36 3
-72 7 -80 9 -28 5 -134 19 -225 29 -33 4 -67 9 -75 11 -8 3 -33 7 -55 10 -77
11 -221 36 -295 50 -41 8 -86 17 -100 19 -223 40 -698 160 -940 238 -51 16
-392 141 -471 173 -10 3 -18 1 -21 -7z"/>
</g>
</svg>
