<?xml version="1.0" standalone="no"?>
<!DOCTYPE svg PUBLIC "-//W3C//DTD SVG 20010904//EN"
 "http://www.w3.org/TR/2001/REC-SVG-20010904/DTD/svg10.dtd">
<svg version="1.0" xmlns="http://www.w3.org/2000/svg"
 width="1381.000000pt" height="1381.000000pt" viewBox="0 0 1381.000000 1381.000000"
 preserveAspectRatio="xMidYMid meet">
<metadata>
Created by potrace 1.11, written by Peter Selinger 2001-2013
</metadata>
<g transform="translate(0.000000,1381.000000) scale(0.100000,-0.100000)"
fill="#000000" stroke="none">
<path d="M6568 13635 c-2 -2 -48 -6 -103 -9 -55 -3 -120 -8 -145 -11 -140 -14
-248 -26 -270 -30 -8 -2 -40 -6 -70 -10 -30 -3 -68 -9 -85 -12 -16 -2 -42 -6
-57 -8 -53 -7 -155 -27 -273 -51 -66 -14 -131 -28 -145 -30 -199 -38 -666
-181 -940 -289 -317 -124 -666 -292 -920 -443 -41 -25 -88 -52 -105 -62 -128
-73 -375 -239 -550 -370 -106 -80 -345 -271 -391 -314 -6 -6 -45 -40 -85 -76
-188 -166 -478 -468 -660 -686 -86 -103 -104 -125 -183 -229 -25 -33 -49 -64
-54 -70 -4 -5 -35 -48 -68 -94 -237 -334 -371 -558 -553 -923 -105 -210 -225
-487 -286 -658 -20 -58 -41 -114 -45 -125 -10 -23 -61 -175 -65 -190 -1 -5 -8
-30 -15 -55 -8 -25 -14 -47 -15 -50 0 -3 -9 -30 -18 -61 -31 -102 -111 -437
-132 -548 -1 -9 -6 -36 -11 -61 -4 -25 -8 -47 -9 -50 -1 -3 -5 -27 -10 -55 -4
-27 -9 -59 -11 -69 -2 -11 -8 -56 -14 -100 -6 -45 -13 -92 -15 -106 -2 -14 -6
-47 -9 -75 -3 -27 -8 -75 -12 -105 -3 -30 -7 -75 -9 -100 -2 -25 -7 -92 -11
-150 -16 -201 -9 -780 10 -985 2 -16 7 -66 10 -109 4 -43 9 -86 11 -95 1 -9 6
-43 9 -76 4 -33 9 -71 11 -85 2 -14 7 -45 10 -70 6 -44 31 -190 40 -240 4 -22
14 -69 29 -145 188 -906 603 -1837 1147 -2570 84 -114 210 -278 218 -285 4 -3
44 -50 91 -105 133 -157 143 -168 370 -395 216 -217 269 -265 454 -419 56 -46
110 -91 121 -100 11 -9 47 -37 80 -61 33 -25 62 -47 65 -50 34 -36 378 -267
570 -382 424 -257 967 -502 1425 -643 114 -35 499 -139 554 -149 29 -5 55 -11
121 -26 25 -5 72 -14 105 -20 33 -5 71 -12 85 -15 32 -7 279 -43 345 -50 28
-3 66 -8 85 -10 74 -10 252 -24 373 -31 108 -5 625 -6 702 0 33 3 98 7 145 11
172 12 348 31 510 56 111 17 121 19 260 45 136 26 422 92 515 119 209 60 520
161 570 184 11 6 63 26 115 47 299 115 643 283 945 461 161 95 516 332 620
415 6 4 48 38 95 75 74 58 246 199 260 213 3 3 48 43 100 90 128 114 386 372
495 495 49 55 92 102 95 105 3 3 25 30 50 60 25 30 47 57 50 60 13 12 154 195
232 300 106 143 398 587 398 605 0 2 30 57 66 122 110 195 264 518 334 698 17
44 35 89 40 100 31 65 137 378 196 580 8 28 19 64 23 80 40 135 125 526 147
675 3 19 7 46 9 60 3 14 7 43 11 65 3 22 7 50 9 63 2 13 7 53 11 90 3 37 8 69
9 72 2 3 6 53 10 110 4 58 9 114 11 125 16 81 22 608 11 840 -9 175 -22 352
-32 415 -2 14 -6 50 -9 80 -3 30 -7 64 -10 75 -2 11 -7 47 -12 80 -4 33 -8 62
-9 65 0 3 -4 27 -9 53 -4 27 -9 58 -12 70 -2 12 -6 37 -9 57 -5 34 -9 53 -20
102 -3 13 -8 39 -11 58 -3 19 -8 38 -10 41 -2 3 -6 19 -9 36 -29 167 -191 722
-252 863 -3 8 -7 17 -8 20 -4 17 -55 144 -109 274 -102 241 -281 598 -395 786
-5 8 -28 47 -52 85 -44 75 -278 427 -288 435 -3 3 -39 50 -80 105 -291 392
-713 835 -1079 1132 -37 30 -76 62 -87 71 -11 10 -40 33 -65 52 -25 19 -49 38
-55 43 -148 116 -457 326 -640 434 -300 177 -604 329 -875 438 -58 23 -114 46
-125 50 -11 5 -22 9 -25 10 -3 1 -12 5 -20 8 -72 32 -534 183 -615 202 -11 3
-74 18 -140 35 -129 33 -478 105 -560 116 -27 3 -57 8 -67 9 -9 2 -38 6 -65
10 -26 4 -59 8 -73 10 -14 2 -52 7 -85 10 -33 3 -73 8 -90 10 -16 2 -64 6
-105 10 -41 3 -95 8 -120 11 -49 6 -807 14 -812 9z"/>
</g>
</svg>
